scaled_model_static_coords.mot
version=1
datacolumns 20
datarows 31
range 4.310000 4.610000
inDegrees=yes
endheader
time	pelvis_tilt	pelvis_list	pelvis_rotation	hip_flexion_r	hip_adduction_r	hip_rotation_r	knee_angle_r	ankle_angle_r	hip_flexion_l	hip_adduction_l	hip_rotation_l	knee_angle_l	ankle_angle_l	pelvis_tx	pelvis_ty	pelvis_tz	lumbar_bending	lumbar_rotation	lumbar_extension
4.310000	7.676331	-0.401193	179.525441	5.184120	-0.813917	-5.072878	2.476780	-1.404371	5.007054	1.186752	-2.712268	2.655155	0.365067	0.721183	0.970613	0.306310	3.663932	-2.056371	8.846592
4.320000	7.698132	-0.407549	179.522923	5.217916	-0.819650	-4.997820	2.442781	-1.391720	5.015509	1.181277	-2.780329	2.672460	0.349368	0.721115	0.970625	0.306260	3.692567	-2.055435	8.852510
4.330000	7.715407	-0.405342	179.517574	5.237924	-0.812759	-4.936216	2.420041	-1.376874	5.019259	1.158972	-2.853486	2.680319	0.338869	0.720995	0.970619	0.306204	3.713087	-2.045437	8.858866
4.340000	7.729269	-0.398325	179.509880	5.243726	-0.797472	-4.896700	2.413487	-1.360799	5.018802	1.127820	-2.913005	2.683612	0.326044	0.720833	0.970603	0.306150	3.724301	-2.032033	8.866284
4.350000	7.741725	-0.391293	179.499926	5.239569	-0.780214	-4.880529	2.422534	-1.343624	5.015917	1.097529	-2.946679	2.687576	0.307027	0.720650	0.970585	0.306111	3.728808	-2.020418	8.875743
4.360000	7.754724	-0.387566	179.488982	5.231803	-0.766907	-4.884629	2.443008	-1.326420	5.013293	1.075739	-2.951568	2.695122	0.284708	0.720472	0.970574	0.306100	3.730573	-2.013304	8.888512
4.370000	7.769301	-0.387417	179.480791	5.225642	-0.760508	-4.904976	2.470235	-1.312745	5.013629	1.065655	-2.932308	2.705972	0.267448	0.720322	0.970572	0.306122	3.731671	-2.010597	8.906020
4.380000	7.784613	-0.388063	179.480656	5.222609	-0.760099	-4.938528	2.500944	-1.308517	5.018250	1.065625	-2.897053	2.717241	0.264600	0.720213	0.970577	0.306173	3.730727	-2.010465	8.928614
4.390000	7.797101	-0.385451	179.492459	5.219778	-0.762358	-4.983204	2.532786	-1.319069	5.025640	1.071059	-2.853648	2.724992	0.281158	0.720153	0.970583	0.306243	3.724120	-2.011014	8.953448
4.400000	7.800916	-0.376529	179.516104	5.211259	-0.763728	-5.036026	2.562774	-1.345970	5.031200	1.077161	-2.807679	2.725844	0.315227	0.720141	0.970584	0.306320	3.708647	-2.011132	8.973547
4.410000	7.790324	-0.360476	179.546881	5.191767	-0.761495	-5.090876	2.586574	-1.387475	5.029331	1.080268	-2.762062	2.717918	0.358976	0.720172	0.970575	0.306395	3.684350	-2.009915	8.979849
4.420000	7.763275	-0.338744	179.576825	5.160695	-0.754008	-5.138167	2.599341	-1.440974	5.016918	1.077912	-2.717490	2.701487	0.401050	0.720241	0.970557	0.306459	3.656256	-2.005893	8.965695
4.430000	7.723966	-0.314587	179.597757	5.123830	-0.741102	-5.167579	2.597967	-1.503288	4.995642	1.069211	-2.673971	2.679774	0.429541	0.720337	0.970539	0.306507	3.633275	-1.997411	8.931138
4.440000	7.682269	-0.292461	179.604617	5.091018	-0.724721	-5.172195	2.583818	-1.569858	4.971465	1.055503	-2.633129	2.658733	0.435293	0.720444	0.970529	0.306533	3.624368	-1.984075	8.884010
4.450000	7.649741	-0.277089	179.597108	5.071055	-0.708802	-5.151231	2.563723	-1.635562	4.951704	1.039996	-2.600027	2.644742	0.414620	0.720538	0.970536	0.306535	3.634331	-1.967853	8.836692
4.460000	7.634346	-0.271733	179.578719	5.067450	-0.697680	-5.110338	2.546972	-1.695431	4.941384	1.026185	-2.583113	2.641664	0.370610	0.720600	0.970561	0.306513	3.661747	-1.952207	8.800553
4.470000	7.636908	-0.276526	179.554248	5.077369	-0.694099	-5.060107	2.539908	-1.744204	4.940841	1.016192	-2.591779	2.649290	0.312575	0.720620	0.970598	0.306473	3.699896	-1.939836	8.781293
4.480000	7.651129	-0.288627	179.528070	5.093362	-0.698708	-5.013537	2.542789	-1.776859	4.945794	1.010400	-2.632230	2.663742	0.253744	0.720600	0.970635	0.306426	3.739218	-1.931421	8.777586
4.490000	7.666846	-0.303822	179.503868	5.106551	-0.710450	-4.983384	2.550759	-1.790158	4.949575	1.008076	-2.703287	2.679460	0.207731	0.720556	0.970661	0.306384	3.769896	-1.925966	8.783126
4.500000	7.674513	-0.317991	179.484772	5.109974	-0.726540	-4.979744	2.557205	-1.783581	4.946162	1.007832	-2.794174	2.691481	0.184566	0.720504	0.970667	0.306353	3.784266	-1.921700	8.790342
4.510000	7.668730	-0.328113	179.473421	5.100763	-0.742829	-5.007447	2.557351	-1.759876	4.932735	1.007832	-2.886174	2.696681	0.187400	0.720464	0.970650	0.306335	3.778760	-1.917231	8.793703
4.520000	7.649635	-0.332835	179.471861	5.080572	-0.755134	-5.063934	2.550168	-1.725115	4.910696	1.006232	-2.958286	2.693982	0.211025	0.720447	0.970616	0.306321	3.754984	-1.912477	8.791406
4.530000	7.622182	-0.332459	179.480710	5.054724	-0.760728	-5.138916	2.537816	-1.687289	4.884863	1.001889	-2.994450	2.684308	0.243304	0.720457	0.970579	0.306302	3.719969	-1.908736	8.785320
4.540000	7.594198	-0.328632	179.497858	5.030750	-0.759250	-5.216245	2.523613	-1.653597	4.861528	0.995155	-2.989024	2.670722	0.269496	0.720489	0.970553	0.306271	3.685218	-1.908169	8.779755
4.550000	7.573989	-0.323838	179.518142	5.016671	-0.752545	-5.277822	2.509945	-1.627536	4.846273	0.988282	-2.948426	2.658437	0.277639	0.720527	0.970551	0.306224	3.663749	-1.913198	8.779753
4.560000	7.568027	-0.320574	179.534863	5.018963	-0.743454	-5.308716	2.497192	-1.607556	4.842340	0.984827	-2.888534	2.653714	0.262721	0.720554	0.970580	0.306166	3.665564	-1.925877	8.789406
4.570000	7.579063	-0.320369	179.542483	5.040314	-0.734203	-5.301798	2.484275	-1.588706	4.849935	0.988001	-2.828814	2.661246	0.228256	0.720553	0.970636	0.306104	3.693646	-1.947131	8.810407
4.580000	7.605226	-0.323146	179.538918	5.077992	-0.725289	-5.259950	2.470389	-1.566591	4.866650	0.998802	-2.785516	2.681224	0.184720	0.720515	0.970710	0.306048	3.742727	-1.975910	8.841084
4.590000	7.640556	-0.327320	179.526105	5.123953	-0.715500	-5.194811	2.456637	-1.541085	4.888734	1.015159	-2.766800	2.707971	0.145430	0.720441	0.970788	0.306007	3.801511	-2.008742	8.876360
4.600000	7.676852	-0.330466	179.508647	5.167154	-0.703012	-5.122654	2.446082	-1.517116	4.912481	1.032575	-2.771776	2.731434	0.121589	0.720341	0.970856	0.305981	3.857092	-2.040115	8.909006
4.610000	7.706120	-0.330185	179.491345	5.197376	-0.686844	-5.059418	2.441799	-1.501814	4.934924	1.045865	-2.793376	2.741248	0.118412	0.720231	0.970906	0.305971	3.899476	-2.063891	8.931865
